{"title":"Joe Cocker - You Can Leave Your Hat On(From Nine And A Half Week","uid":8149515,"size":143110750,"categoryP":"video","categoryS":"music_videos","magnet":"?xt=urn:btih:adfdb5259ede6314be53c0e5a7590dcf8e15e41d&amp;dn=Joe+Cocker+-+You+Can+Leave+Your+Hat+On%28From+Nine+And+A+Half+Week&amp;tr=udp%3A%2F%2Ftracker.openbittorrent.com%3A80&amp;tr=udp%3A%2F%2Fopen.demonii.com%3A1337&amp;tr=udp%3A%2F%2Ftracker.coppersurfer.tk%3A6969&amp;tr=udp%3A%2F%2Fexodus.desync.com%3A6969","seeders":1,"leechers":0,"uploader":"jujcho","files":1,"time":1361011458,"description":"Video\nID                               : 2\nFormat                           : AVC\nFormat/Info                      : Advanced Video Codec\nFormat profile                   : &lt;a class=&quot;__cf_email__&quot; href=&quot;/cdn-cgi/l/email-protection&quot; data-cfemail=&quot;d49cbdb3bc9498e0fae4&quot;&gt;[email&amp;#160;protected]&lt;/a&gt;&lt;script cf-hash='f9e31' type=&quot;text/javascript&quot;&gt;\n/* &lt;![CDATA[ */!function(){try{var t=&quot;currentScript&quot;in document?document.currentScript:function(){for(var t=document.getElementsByTagName(&quot;script&quot;),e=t.length;e--;)if(t[e].getAttribute(&quot;cf-hash&quot;))return t[e]}();if(t&amp;&amp;t.previousSibling){var e,r,n,i,c=t.previousSibling,a=c.getAttribute(&quot;data-cfemail&quot;);if(a){for(e=&quot;&quot;,r=parseInt(a.substr(0,2),16),n=2;a.length-n;n+=2)i=parseInt(a.substr(n,2),16)^r,e+=String.fromCharCode(i);e=document.createTextNode(e),c.parentNode.replaceChild(e,c)}}}catch(u){}}();/* ]]&gt; */&lt;/script&gt;\nFormat settings, CABAC           : Yes\nFormat settings, ReFrames        : 3 frames\nCodec ID                         : V_MPEG4/ISO/AVC\nDuration                         : 4mn 20s\nBit rate mode                    : Constant\nBit rate                         : 4 000 Kbps / 4 000 Kbps\nWidth                            : 1 920 pixels\nHeight                           : 1 080 pixels\nDisplay aspect ratio             : 16:9\nFrame rate                       : 23.976 fps\nStandard                         : NTSC\nColor space                      : YUV\nChroma subsampling               : 4:2:0\nBit depth                        : 8 bits\nScan type                        : Progressive\nBits/(Pixel*Frame)               : 0.080\nStream size                      : 120 MiB (88%)\nWriting library                  : x264 core 112\nEncoding settings                : cabac=1\n\nAudio\nID                               : 1\nFormat                           : AC-3\nFormat/Info                      : Audio Coding 3\nMode extension                   : CM (complete main)\nCodec ID                         : A_AC3\nDuration                         : 4mn 20s\nBit rate mode                    : Constant\nBit rate                         : 448 Kbps\nChannel(s)                       : 2 channels\nChannel positions                : Front: L R\nSampling rate                    : 48.0 KHz\nBit depth                        : 16 bits\nCompression mode                 : Lossy\nStream size                      : 13.9 MiB (10%)\nDefault                          : Yes\nForced                           : No","torrent":{"xt":"urn:btih:adfdb5259ede6314be53c0e5a7590dcf8e15e41d","amp;dn":"Joe+Cocker+-+You+Can+Leave+Your+Hat+On%28From+Nine+And+A+Half+Week","amp;tr":["udp%3A%2F%2Ftracker.openbittorrent.com%3A80","udp%3A%2F%2Fopen.demonii.com%3A1337","udp%3A%2F%2Ftracker.coppersurfer.tk%3A6969","udp%3A%2F%2Fexodus.desync.com%3A6969"],"infoHash":"adfdb5259ede6314be53c0e5a7590dcf8e15e41d","infoHashBuffer":{"type":"Buffer","data":[173,253,181,37,158,222,99,20,190,83,192,229,167,89,13,207,142,21,228,29]},"announce":[],"urlList":[]}}